<svg width="84" height="78" viewBox="0 0 84 78" fill="none" xmlns="http://www.w3.org/2000/svg">
<path d="M29.0279 47.8429H31.6332V44.4177C26.6677 45.6191 21.959 46.4707 17.7246 46.925V54.5316H31.6332V51.1979L29.0279 47.8429Z" fill="#E86512"/>
<path d="M31.6332 38.5187V26.0551C31.6332 24.4207 30.3087 23.0962 28.6743 23.0962H20.6836C19.0491 23.0962 17.7246 24.4207 17.7246 26.0551V40.532C21.5749 40.4008 26.3617 39.6989 31.6332 38.5187Z" fill="#E86512"/>
<path d="M55.7466 36.4496V54.533H69.6552V29.5542C65.6565 31.9118 60.9466 34.2535 55.7466 36.4496Z" fill="#E86512"/>
<path d="M45.117 40.4854C42.2362 41.4642 39.3752 42.3489 36.5686 43.1317V47.843H39.4163L36.5686 51.5105V54.5331H50.4772V38.5569C48.7289 39.2205 46.9408 39.8642 45.117 40.4854Z" fill="#E86512"/>
<path d="M48.0285 19.8778L50.4749 16.7268V15.9454C50.4749 14.4222 49.2404 13.1877 47.7173 13.1877H39.3226C37.7994 13.1877 36.5649 14.4222 36.5649 15.9454V37.3109C39.8643 36.4381 43.2868 35.4063 46.7398 34.2328C48.0166 33.7984 49.2603 33.3573 50.4736 32.9123V19.8778H48.0285Z" fill="#E86512"/>
<path d="M55.7466 3.77557V16.4392L58.4168 19.8776H55.7466V30.8643C61.2923 28.5875 65.9784 26.2511 69.6552 24.067V3.77557C69.6552 1.81265 68.0645 0.221924 66.1016 0.221924H59.3016C57.3373 0.221924 55.7466 1.81265 55.7466 3.77557Z" fill="#E86512"/>
<path d="M83.311 12.1184L75.6434 17.6654L79.6063 17.6615C76.6487 22.623 63.6633 29.9436 47.1878 35.5436C27.4209 42.2628 10.1215 43.9595 8.54933 39.333C7.79701 37.1198 10.7824 33.8615 16.2606 30.329V26.4244C5.37052 32.2681 -1.15267 38.2906 0.169185 42.182C2.20892 48.1833 22.1334 46.839 44.6725 39.178C63.152 32.8972 77.6474 24.3197 81.1454 18.1264L83.3242 20.9502L83.311 12.1184Z" fill="url(#paint0_linear_88_953)"/>
<path d="M8.44629 70.3452V60.0525H10.8423V70.3452H8.44629ZM10.6516 66.1267V64.1121H15.6794V66.1267H10.6516ZM15.5046 70.3452V60.0525H17.886V70.3452H15.5046Z" fill="black"/>
<path d="M24.0904 70.4632C23.1884 70.4632 22.399 70.2871 21.7235 69.9334C21.048 69.5798 20.5222 69.0977 20.15 68.4857C19.7778 67.8738 19.5911 67.1745 19.5911 66.3904C19.5911 65.6063 19.7699 64.9056 20.1275 64.2884C20.4851 63.6712 20.9858 63.1877 21.6268 62.8407C22.2692 62.4924 22.9911 62.3188 23.795 62.3188C24.5699 62.3188 25.2679 62.4857 25.8904 62.8182C26.5129 63.152 27.0056 63.6222 27.3685 64.2301C27.7315 64.8381 27.9129 65.5679 27.9129 66.4208C27.9129 66.5096 27.9076 66.6102 27.8984 66.7228C27.8891 66.8354 27.8785 66.9414 27.8692 67.0394H21.444V65.7016H26.6639L25.7672 66.099C25.7765 65.6871 25.6984 65.3294 25.5315 65.0261C25.3646 64.7228 25.1341 64.4844 24.8401 64.3136C24.546 64.1427 24.203 64.0566 23.8109 64.0566C23.4189 64.0566 23.0732 64.1427 22.7738 64.3136C22.4745 64.4857 22.2414 64.7255 22.0758 65.0341C21.9089 65.3427 21.8255 65.7083 21.8255 66.1294V66.4831C21.8255 66.9241 21.9235 67.3069 22.1195 67.6301C22.3156 67.9533 22.5844 68.201 22.9288 68.3732C23.2719 68.5453 23.6838 68.6301 24.1633 68.6301C24.5752 68.6301 24.9394 68.5665 25.2586 68.4394C25.5765 68.3122 25.8692 68.1215 26.1328 67.8659L27.3527 69.1891C26.9897 69.601 26.5341 69.9175 25.9858 70.1374C25.4387 70.3533 24.8056 70.4632 24.0904 70.4632Z" fill="black"/>
<path d="M33.3682 70.4632C32.4663 70.4632 31.6768 70.2871 31.0013 69.9334C30.3245 69.5811 29.8 69.0977 29.4278 68.4857C29.0557 67.8738 28.8689 67.1745 28.8689 66.3904C28.8689 65.6063 29.0477 64.9056 29.4053 64.2884C29.7629 63.6712 30.2623 63.1877 30.9047 62.8407C31.547 62.4924 32.2689 62.3188 33.0729 62.3188C33.8477 62.3188 34.5457 62.4857 35.1682 62.8182C35.7908 63.152 36.2835 63.6222 36.6464 64.2301C37.0093 64.8381 37.1908 65.5679 37.1908 66.4208C37.1908 66.5096 37.1855 66.6102 37.1762 66.7228C37.1669 66.8354 37.1563 66.9414 37.147 67.0394H30.7219V65.7016H35.9418L35.0451 66.099C35.0543 65.6871 34.9762 65.3294 34.8093 65.0261C34.6424 64.7228 34.4119 64.4844 34.1179 64.3136C33.8239 64.1427 33.4808 64.0566 33.0888 64.0566C32.6967 64.0566 32.351 64.1427 32.0517 64.3136C31.7523 64.4857 31.5192 64.7255 31.3537 65.0341C31.1868 65.3427 31.1033 65.7083 31.1033 66.1294V66.4831C31.1033 66.9241 31.2014 67.3069 31.3974 67.6301C31.5934 67.9533 31.8623 68.201 32.2053 68.3732C32.5484 68.5453 32.9603 68.6301 33.4411 68.6301C33.853 68.6301 34.2172 68.5665 34.5364 68.4394C34.8543 68.3122 35.1471 68.1215 35.412 67.8659L36.6318 69.1891C36.2689 69.601 35.8133 69.9175 35.2649 70.1374C34.7153 70.3533 34.0835 70.4632 33.3682 70.4632Z" fill="black"/>
<path d="M38.7197 70.3453V59.4353H41.0138V70.3453H38.7197Z" fill="black"/>
<path d="M43.1443 70.3453V59.4353H45.4383V64.626L44.9231 63.9638C45.2079 63.434 45.6145 63.0274 46.143 62.7439C46.6728 62.4592 47.2754 62.3174 47.9509 62.3174C48.5774 62.3174 49.139 62.4419 49.6344 62.6923C50.1297 62.9426 50.5191 63.324 50.8039 63.8393C51.0873 64.3532 51.2304 65.0128 51.2304 65.8168V70.3453H48.9363V66.1691C48.9363 65.532 48.7973 65.0618 48.5178 64.7572C48.2383 64.4539 47.8436 64.3015 47.3337 64.3015C46.9708 64.3015 46.645 64.3797 46.3562 64.5373C46.0675 64.6936 45.8423 64.9241 45.6794 65.2287C45.5178 65.532 45.437 65.9346 45.437 66.434V70.3453H43.1443Z" fill="black"/>
<path d="M57.2135 70.4632C56.3115 70.4632 55.5221 70.2871 54.8466 69.9334C54.1711 69.5798 53.6452 69.0977 53.2731 68.4857C52.9009 67.8738 52.7141 67.1745 52.7141 66.3904C52.7141 65.6063 52.8929 64.9056 53.2505 64.2884C53.6082 63.6712 54.1075 63.1877 54.7499 62.8407C55.3923 62.4924 56.1141 62.3188 56.9181 62.3188C57.6929 62.3188 58.3909 62.4857 59.0135 62.8182C59.636 63.152 60.1287 63.6222 60.4916 64.2301C60.8545 64.8381 61.036 65.5679 61.036 66.4208C61.036 66.5096 61.0307 66.6102 61.0214 66.7228C61.0121 66.8354 61.0015 66.9414 60.9923 67.0394H54.5671V65.7016H59.787L58.8903 66.099C58.8995 65.6871 58.8214 65.3294 58.6545 65.0261C58.4876 64.7228 58.2572 64.4844 57.9631 64.3136C57.6691 64.1427 57.326 64.0566 56.934 64.0566C56.5419 64.0566 56.1962 64.1427 55.8969 64.3136C55.5976 64.4857 55.3644 64.7255 55.1989 65.0341C55.032 65.3427 54.9485 65.7083 54.9485 66.1294V66.4831C54.9485 66.9241 55.0466 67.3069 55.2426 67.6301C55.4386 67.9533 55.7075 68.201 56.0505 68.3732C56.3936 68.5453 56.8055 68.6301 57.2863 68.6301C57.6982 68.6301 58.0625 68.5665 58.3817 68.4394C58.6996 68.3122 58.9923 68.1215 59.2572 67.8659L60.477 69.1891C60.1141 69.601 59.6585 69.9175 59.1101 70.1374C58.5618 70.3573 57.9287 70.4632 57.2135 70.4632Z" fill="black"/>
<path d="M63.714 61.3336C63.2822 61.3336 62.9352 61.2118 62.6703 60.9654C62.4054 60.7204 62.2729 60.417 62.2729 60.0541C62.2729 59.6912 62.4054 59.3879 62.6703 59.1429C62.9352 58.8978 63.2822 58.7747 63.714 58.7747C64.1352 58.7747 64.4809 58.8899 64.7498 59.1204C65.02 59.3508 65.1537 59.6475 65.1537 60.0104C65.1537 60.3932 65.0213 60.7084 64.7564 60.9588C64.4928 61.2078 64.1445 61.3336 63.714 61.3336ZM62.5657 70.3455V62.4356H64.8597V70.3455H62.5657Z" fill="black"/>
<path d="M70.3887 70.4631C69.6444 70.4631 68.9728 70.2936 68.3742 69.9558C67.7755 69.6181 67.3053 69.1452 66.9622 68.5373C66.6192 67.9294 66.447 67.2141 66.447 66.3903C66.447 65.5664 66.6179 64.8512 66.9622 64.2433C67.3053 63.6353 67.7755 63.1625 68.3742 62.8247C68.9715 62.487 69.643 62.3174 70.3887 62.3174C71.055 62.3174 71.6391 62.4644 72.1384 62.7585C72.6378 63.0525 73.0258 63.4989 73.3 64.0962C73.5742 64.6936 73.7119 65.4592 73.7119 66.3903C73.7119 67.3121 73.5795 68.0764 73.3146 68.6843C73.0497 69.2923 72.6695 69.7413 72.1755 70.03C71.6801 70.3188 71.0841 70.4631 70.3887 70.4631ZM70.7715 68.581C71.1543 68.581 71.4974 68.4949 71.8007 68.3241C72.104 68.1532 72.3464 67.9002 72.5278 67.5664C72.7093 67.234 72.7993 66.8406 72.7993 66.3903C72.7993 65.9293 72.7093 65.5373 72.5278 65.2141C72.3464 64.8909 72.104 64.6433 71.8007 64.4711C71.4974 64.3002 71.1543 64.2141 70.7715 64.2141C70.3993 64.2141 70.0603 64.3002 69.757 64.4711C69.4536 64.6433 69.2113 64.8896 69.0298 65.2141C68.8483 65.5386 68.7583 65.9293 68.7583 66.3903C68.7583 66.8406 68.8483 67.234 69.0298 67.5664C69.2113 67.9002 69.4536 68.1519 69.757 68.3241C70.0603 68.4962 70.398 68.581 70.7715 68.581ZM72.8589 70.3453V68.728L72.9027 66.3757L72.7556 64.038V59.4353H75.0497V70.3453H72.8589Z" fill="black"/>
<path d="M15.1328 77.7564V74.7988H16.3673C16.6851 74.7988 16.9355 74.8637 17.1156 74.9935C17.2957 75.1233 17.3858 75.3101 17.3858 75.5551C17.3858 75.7154 17.3474 75.8505 17.2719 75.9604C17.1964 76.0704 17.0904 76.1525 16.9567 76.2081C16.8229 76.2637 16.6732 76.2902 16.5063 76.2902L16.5818 76.2055C16.7845 76.2055 16.958 76.2346 17.101 76.2942C17.2441 76.3538 17.354 76.4399 17.4282 76.5525C17.5024 76.6651 17.5408 76.8055 17.5408 76.975C17.5408 77.2227 17.4507 77.4147 17.2706 77.5512C17.0904 77.6876 16.8176 77.7564 16.4507 77.7564H15.1328ZM15.3487 77.571H16.452C16.7368 77.571 16.954 77.522 17.1023 77.4253C17.252 77.3286 17.3262 77.1723 17.3262 76.9578C17.3262 76.7472 17.252 76.5922 17.1023 76.4955C16.9527 76.3988 16.7355 76.3498 16.452 76.3498H15.3235V76.1644H16.3593C16.6163 76.1644 16.8149 76.1154 16.9553 76.016C17.0957 75.9167 17.1673 75.7697 17.1673 75.5723C17.1673 75.3776 17.0971 75.2319 16.9553 75.1326C16.8136 75.0333 16.6163 74.9843 16.3593 74.9843H15.35V77.571H15.3487Z" fill="black"/>
<path d="M20.2279 77.7781C19.8611 77.7781 19.5723 77.6708 19.3617 77.4576C19.1498 77.243 19.0452 76.9252 19.0452 76.5026V74.7993H19.2611V76.4934C19.2611 76.8629 19.3458 77.1357 19.514 77.3132C19.6836 77.4907 19.922 77.5795 20.2319 77.5795C20.5392 77.5795 20.7776 77.4907 20.9458 77.3132C21.1154 77.1357 21.1988 76.8629 21.1988 76.4934V74.7993H21.4147V76.5026C21.4147 76.9252 21.3087 77.243 21.0981 77.4576C20.8862 77.6722 20.5962 77.7781 20.2279 77.7781Z" fill="black"/>
<path d="M23.9597 77.7783C23.7399 77.7783 23.5319 77.7412 23.3359 77.667C23.1399 77.5929 22.9889 77.4962 22.8816 77.377L22.9783 77.2167C23.0803 77.3213 23.218 77.4088 23.3942 77.4803C23.5703 77.5518 23.7571 77.5876 23.9544 77.5876C24.1518 77.5876 24.3134 77.5611 24.4379 77.5094C24.5624 77.4578 24.6564 77.3876 24.7174 77.3001C24.7783 77.2127 24.8087 77.116 24.8087 77.0088C24.8087 76.8816 24.7743 76.7809 24.7068 76.7041C24.6392 76.6286 24.5505 76.5677 24.4405 76.5227C24.3306 76.4776 24.2114 76.4392 24.0816 76.4088C23.9518 76.3783 23.8207 76.3452 23.6882 76.3094C23.5558 76.2737 23.4352 76.2286 23.3253 76.1717C23.2154 76.1147 23.1279 76.0392 23.0617 75.9412C22.9955 75.8445 22.9624 75.7174 22.9624 75.5624C22.9624 75.422 22.9995 75.2922 23.0723 75.173C23.1452 75.0551 23.2591 74.9584 23.414 74.8856C23.569 74.8127 23.7677 74.7756 24.0101 74.7756C24.173 74.7756 24.3346 74.7995 24.4935 74.8472C24.6525 74.8948 24.7889 74.9597 24.9015 75.0419L24.8207 75.2154C24.6962 75.1306 24.5637 75.0684 24.4207 75.0273C24.2789 74.9862 24.1412 74.9664 24.0087 74.9664C23.8193 74.9664 23.663 74.9929 23.5399 75.0472C23.4154 75.1001 23.324 75.1717 23.2657 75.2604C23.2061 75.3491 23.177 75.4485 23.177 75.5584C23.177 75.6856 23.2101 75.7862 23.2763 75.8631C23.3425 75.9386 23.4299 75.9995 23.5399 76.0445C23.6498 76.0895 23.7703 76.128 23.9028 76.1584C24.0352 76.1889 24.1664 76.222 24.2962 76.2578C24.426 76.2935 24.5452 76.3386 24.6551 76.3955C24.765 76.4525 24.8538 76.528 24.9213 76.6233C24.9889 76.7187 25.0233 76.8432 25.0233 76.9955C25.0233 77.1333 24.9849 77.2631 24.9094 77.3823C24.8339 77.5015 24.7174 77.5982 24.5611 77.6697C24.4048 77.7425 24.2048 77.7783 23.9597 77.7783Z" fill="black"/>
<path d="M26.5168 77.7569V74.7993H26.7327V77.7569H26.5168Z" fill="black"/>
<path d="M28.5242 77.7569V74.7993H28.7056L30.8142 77.4907H30.7175V74.7993H30.9334V77.7569H30.756L28.6434 75.0655H28.7401V77.7569H28.5242Z" fill="black"/>
<path d="M32.7246 77.7569V74.7993H34.7021V74.994H32.9405V77.5636H34.7657V77.7583H32.7246V77.7569ZM32.914 76.3503V76.1596H34.5153V76.3503H32.914Z" fill="black"/>
<path d="M37.0889 77.7783C36.869 77.7783 36.6611 77.7412 36.465 77.667C36.269 77.5929 36.118 77.4962 36.0107 77.377L36.1074 77.2167C36.2094 77.3213 36.3472 77.4088 36.5233 77.4803C36.6995 77.5518 36.8862 77.5876 37.0836 77.5876C37.2809 77.5876 37.4425 77.5611 37.567 77.5094C37.6915 77.4578 37.7856 77.3876 37.8465 77.3001C37.9074 77.2127 37.9379 77.116 37.9379 77.0088C37.9379 76.8816 37.9035 76.7809 37.8359 76.7041C37.7684 76.6286 37.6796 76.5677 37.5697 76.5227C37.4598 76.4776 37.3405 76.4392 37.2107 76.4088C37.0809 76.3783 36.9498 76.3452 36.8174 76.3094C36.6849 76.2737 36.5644 76.2286 36.4544 76.1717C36.3445 76.1147 36.2558 76.0392 36.1909 75.9412C36.1246 75.8445 36.0915 75.7174 36.0915 75.5624C36.0915 75.422 36.1286 75.2922 36.2015 75.173C36.2743 75.0551 36.3896 74.9584 36.5432 74.8856C36.6982 74.8127 36.8968 74.7756 37.1392 74.7756C37.3021 74.7756 37.4637 74.7995 37.6227 74.8472C37.7816 74.8948 37.918 74.9597 38.0306 75.0419L37.9498 75.2154C37.8253 75.1306 37.6929 75.0684 37.5498 75.0273C37.4081 74.9862 37.2703 74.9664 37.1379 74.9664C36.9498 74.9664 36.7922 74.9929 36.669 75.0472C36.5445 75.1001 36.4531 75.1717 36.3948 75.2604C36.3352 75.3491 36.3061 75.4485 36.3061 75.5584C36.3061 75.6856 36.3392 75.7862 36.4054 75.8631C36.4717 75.9386 36.5591 75.9995 36.669 76.0445C36.779 76.0895 36.8995 76.128 37.0319 76.1584C37.1644 76.1889 37.2955 76.222 37.4253 76.2578C37.5551 76.2935 37.6743 76.3386 37.7843 76.3955C37.8942 76.4525 37.9829 76.528 38.0505 76.6233C38.118 76.7187 38.1525 76.8432 38.1525 76.9955C38.1525 77.1333 38.1141 77.2631 38.0386 77.3823C37.9631 77.5015 37.8465 77.5982 37.6902 77.6697C37.5339 77.7425 37.3339 77.7783 37.0889 77.7783Z" fill="black"/>
<path d="M40.4246 77.7783C40.2047 77.7783 39.9968 77.7412 39.8007 77.667C39.6047 77.5929 39.4537 77.4962 39.3464 77.377L39.4431 77.2167C39.5451 77.3213 39.6829 77.4088 39.859 77.4803C40.0352 77.5518 40.2219 77.5876 40.4193 77.5876C40.6166 77.5876 40.7782 77.5611 40.9027 77.5094C41.0272 77.4578 41.1213 77.3876 41.1822 77.3001C41.2431 77.2127 41.2736 77.116 41.2736 77.0088C41.2736 76.8816 41.2392 76.7809 41.1716 76.7041C41.1041 76.6286 41.0153 76.5677 40.9054 76.5227C40.7954 76.4776 40.6762 76.4392 40.5464 76.4088C40.4166 76.3783 40.2855 76.3452 40.1531 76.3094C40.0206 76.2737 39.9001 76.2286 39.7901 76.1717C39.6802 76.1147 39.5915 76.0392 39.5266 75.9412C39.4603 75.8445 39.4272 75.7174 39.4272 75.5624C39.4272 75.422 39.4643 75.2922 39.5372 75.173C39.61 75.0551 39.7252 74.9584 39.8789 74.8856C40.0339 74.8127 40.2325 74.7756 40.4749 74.7756C40.6378 74.7756 40.7994 74.7995 40.9584 74.8472C41.1173 74.8948 41.2537 74.9597 41.3663 75.0419L41.2855 75.2154C41.161 75.1306 41.0286 75.0684 40.8855 75.0273C40.7438 74.9862 40.606 74.9664 40.4736 74.9664C40.2855 74.9664 40.1279 74.9929 40.0047 75.0472C39.8802 75.1001 39.7888 75.1717 39.7305 75.2604C39.6709 75.3491 39.6418 75.4485 39.6418 75.5584C39.6418 75.6856 39.6749 75.7862 39.7411 75.8631C39.8074 75.9386 39.8948 75.9995 40.0047 76.0445C40.1147 76.0895 40.2352 76.128 40.3676 76.1584C40.5001 76.1889 40.6312 76.222 40.761 76.2578C40.8908 76.2935 41.01 76.3386 41.1199 76.3955C41.2299 76.4525 41.3186 76.528 41.3862 76.6233C41.4537 76.7187 41.4882 76.8432 41.4882 76.9955C41.4882 77.1333 41.4497 77.2631 41.3743 77.3823C41.2988 77.5015 41.1822 77.5982 41.0259 77.6697C40.8696 77.7425 40.6696 77.7783 40.4246 77.7783Z" fill="black"/>
<path d="M46.0774 77.7781C45.8575 77.7781 45.6535 77.741 45.4668 77.6668C45.28 77.5926 45.1171 77.4867 44.9794 77.3516C44.8416 77.2165 44.7343 77.0576 44.6588 76.8761C44.5833 76.6946 44.5449 76.4946 44.5449 76.2787C44.5449 76.0615 44.5833 75.8628 44.6588 75.6814C44.7343 75.4999 44.8429 75.341 44.982 75.2059C45.1211 75.0708 45.284 74.9662 45.4707 74.8907C45.6562 74.8165 45.8588 74.7781 46.0787 74.7781C46.2866 74.7781 46.4827 74.8125 46.6641 74.8801C46.8456 74.9476 47.0019 75.0509 47.1317 75.1887L46.9966 75.3277C46.8694 75.2032 46.729 75.1145 46.5767 75.0589C46.4244 75.0032 46.2602 74.9768 46.0893 74.9768C45.8999 74.9768 45.7251 75.0099 45.5635 75.0734C45.4019 75.1383 45.2602 75.2297 45.1409 75.3476C45.0217 75.4655 44.9277 75.6046 44.8615 75.7622C44.7953 75.9198 44.7621 76.092 44.7621 76.2774C44.7621 76.4628 44.7953 76.635 44.8615 76.7927C44.9277 76.9503 45.0204 77.088 45.1409 77.2072C45.2615 77.3264 45.4019 77.4165 45.5635 77.4814C45.7251 77.5463 45.9012 77.5781 46.0893 77.5781C46.2615 77.5781 46.4244 77.5503 46.5767 77.496C46.7304 77.4403 46.8708 77.3503 46.9966 77.2231L47.1317 77.3622C47.0019 77.4999 46.8469 77.6032 46.6641 77.6721C46.4813 77.741 46.2866 77.7781 46.0774 77.7781Z" fill="black"/>
<path d="M49.828 77.778C49.6082 77.778 49.4042 77.7409 49.2174 77.6667C49.0294 77.5925 48.8664 77.4866 48.7274 77.3502C48.5883 77.2137 48.4797 77.0548 48.4042 76.8733C48.3287 76.6919 48.2903 76.4932 48.2903 76.28C48.2903 76.0654 48.3287 75.868 48.4042 75.6866C48.4797 75.5051 48.5883 75.3462 48.7274 75.2084C48.8664 75.072 49.0307 74.966 49.2174 74.8919C49.4042 74.8177 49.6082 74.7793 49.828 74.7793C50.0479 74.7793 50.2519 74.8164 50.4386 74.8919C50.6254 74.966 50.7883 75.072 50.926 75.2071C51.0638 75.3422 51.1724 75.5012 51.2492 75.6826C51.3261 75.8641 51.3658 76.0641 51.3658 76.28C51.3658 76.4972 51.3274 76.6959 51.2492 76.8773C51.1711 77.0588 51.0638 77.2177 50.926 77.3528C50.7883 77.4879 50.6254 77.5925 50.4386 77.668C50.2519 77.7409 50.0479 77.778 49.828 77.778ZM49.828 77.5793C50.0161 77.5793 50.1909 77.5475 50.3525 77.4826C50.5128 77.4177 50.6532 77.3263 50.7711 77.2084C50.889 77.0906 50.9817 76.9515 51.0479 76.7939C51.1141 76.6363 51.1472 76.4641 51.1472 76.2786C51.1472 76.0906 51.1141 75.917 51.0479 75.7608C50.9817 75.6045 50.889 75.4667 50.7711 75.3488C50.6532 75.231 50.5128 75.1396 50.3525 75.0747C50.1923 75.0098 50.0174 74.978 49.828 74.978C49.6386 74.978 49.4651 75.0111 49.3035 75.0747C49.1433 75.1396 49.0029 75.231 48.8837 75.3488C48.7645 75.4667 48.6704 75.6045 48.6042 75.7608C48.538 75.917 48.5049 76.0892 48.5049 76.2786C48.5049 76.4641 48.538 76.6363 48.6042 76.7939C48.6704 76.9515 48.7631 77.0892 48.8837 77.2084C49.0042 77.3276 49.1433 77.4177 49.3035 77.4826C49.4651 77.5475 49.64 77.5793 49.828 77.5793Z" fill="black"/>
<path d="M52.874 77.7569V74.7993H53.0555L54.429 77.1702H54.3323L55.7018 74.7993H55.8793L55.8833 77.7569H55.6714L55.6674 75.1238H55.727L54.4303 77.3636H54.3244L53.0224 75.1238H53.0859V77.7569H52.874Z" fill="black"/>
<path d="M57.6743 77.7569V74.7993H58.7352C58.9829 74.7993 59.1962 74.8391 59.3737 74.9172C59.5511 74.9953 59.6876 75.1093 59.7829 75.2576C59.8783 75.4059 59.926 75.5848 59.926 75.7967C59.926 76.002 59.8783 76.1795 59.7829 76.3291C59.6876 76.4788 59.5511 76.5927 59.3737 76.6708C59.1962 76.749 58.9829 76.7887 58.7352 76.7887H57.7935L57.8902 76.6867V77.7556H57.6743V77.7569ZM57.8902 76.7013L57.7935 76.5954H58.7352C59.0531 76.5954 59.2955 76.5252 59.4598 76.3861C59.624 76.247 59.7074 76.0497 59.7074 75.7967C59.7074 75.5397 59.6253 75.3424 59.4598 75.2033C59.2942 75.0642 59.0531 74.994 58.7352 74.994H57.7935L57.8902 74.8881V76.7013Z" fill="black"/>
<path d="M60.9604 77.7569L62.3207 74.7993H62.5366L63.8969 77.7569H63.6651L62.3803 74.9344H62.473L61.1922 77.7569H60.9604ZM61.4598 76.9252L61.5313 76.7437H63.3022L63.3737 76.9252H61.4598Z" fill="black"/>
<path d="M65.1953 77.7569V74.7993H65.3768L67.4854 77.4907H67.3887V74.7993H67.6046V77.7569H67.4271L65.3145 75.0655H65.4112V77.7569H65.1953Z" fill="black"/>
<path d="M70.0907 77.7569V76.6841L70.1411 76.8232L68.8987 74.7993H69.1358L70.2642 76.6377H70.1464L71.2748 74.7993H71.4987L70.2563 76.8232L70.3066 76.6841V77.7569H70.0907Z" fill="black"/>
<defs>
<linearGradient id="paint0_linear_88_953" x1="94.5316" y1="-2.17369" x2="11.6335" y2="45.6876" gradientUnits="userSpaceOnUse">
<stop/>
<stop offset="0.2121" stop-color="#0B0B0A"/>
<stop offset="0.3474" stop-color="#242422"/>
<stop offset="0.4612" stop-color="#3C3C38"/>
<stop offset="0.5632" stop-color="#525148"/>
<stop offset="0.6573" stop-color="#6B6958"/>
<stop offset="0.7455" stop-color="#898564"/>
<stop offset="0.8291" stop-color="#E3D2C8"/>
<stop offset="0.9092" stop-color="#C19A82"/>
<stop offset="0.9838" stop-color="#DE8750"/>
<stop offset="1" stop-color="#D35D13"/>
</linearGradient>
</defs>
</svg>
