<svg width="50" height="51" viewBox="0 0 50 51" fill="none" xmlns="http://www.w3.org/2000/svg">
<rect y="0.5" width="50" height="50" rx="25" fill="white"/>
<path d="M28.5 26.5C32.0899 26.5 35 25.6046 35 24.5C35 23.3954 32.0899 22.5 28.5 22.5C24.9101 22.5 22 23.3954 22 24.5C22 25.6046 24.9101 26.5 28.5 26.5Z" stroke="#454545" stroke-width="1.5"/>
<path d="M35 29C35 30.1046 32.0899 31 28.5 31C24.9101 31 22 30.1046 22 29" stroke="#454545" stroke-width="1.5"/>
<path d="M35 24.5V33.3C35 34.515 32.0899 35.5 28.5 35.5C24.9101 35.5 22 34.515 22 33.3V24.5" stroke="#454545" stroke-width="1.5"/>
<path d="M21.5 19.5C25.0899 19.5 28 18.6046 28 17.5C28 16.3954 25.0899 15.5 21.5 15.5C17.9101 15.5 15 16.3954 15 17.5C15 18.6046 17.9101 19.5 21.5 19.5Z" stroke="#454545" stroke-width="1.5"/>
<path d="M19 24.5C17.1082 24.2698 15.3699 23.6745 15 22.5M19 29.5C17.1082 29.2698 15.3699 28.6745 15 27.5" stroke="#454545" stroke-width="1.5" stroke-linecap="round"/>
<path d="M19 34.5C17.1082 34.2698 15.3699 33.6745 15 32.5V17.5" stroke="#454545" stroke-width="1.5" stroke-linecap="round"/>
<path d="M28 19.5V17.5" stroke="#454545" stroke-width="1.5" stroke-linecap="round"/>
</svg>
