<svg width="50" height="51" viewBox="0 0 50 51" fill="none" xmlns="http://www.w3.org/2000/svg">
<rect y="0.5" width="50" height="50" rx="25" fill="white"/>
<path d="M16.5 26V33C16.5 33.4659 16.5 33.6989 16.5761 33.8827C16.6776 34.1277 16.8723 34.3224 17.1173 34.4239C17.3011 34.5 17.5341 34.5 18 34.5C18.4659 34.5 18.6989 34.5 18.8827 34.4239C19.1277 34.3224 19.3224 34.1277 19.4239 33.8827C19.5 33.6989 19.5 33.4659 19.5 33V26C19.5 25.5341 19.5 25.3011 19.4239 25.1173C19.3224 24.8723 19.1277 24.6776 18.8827 24.5761C18.6989 24.5 18.4659 24.5 18 24.5C17.5341 24.5 17.3011 24.5 17.1173 24.5761C16.8723 24.6776 16.6776 24.8723 16.5761 25.1173C16.5 25.3011 16.5 25.5341 16.5 26Z" stroke="#454545" stroke-width="1.5" stroke-linecap="square" stroke-linejoin="round"/>
<path d="M23.5 28V32.9995C23.5 33.4654 23.5 33.6984 23.5761 33.8822C23.6776 34.1272 23.8723 34.3219 24.1173 34.4234C24.3011 34.4995 24.5341 34.4995 25 34.4995C25.4659 34.4995 25.6989 34.4995 25.8827 34.4234C26.1277 34.3219 26.3224 34.1272 26.4239 33.8822C26.5 33.6984 26.5 33.4654 26.5 32.9995V28C26.5 27.5341 26.5 27.3011 26.4239 27.1173C26.3224 26.8723 26.1277 26.6776 25.8827 26.5761C25.6989 26.5 25.4659 26.5 25 26.5C24.5341 26.5 24.3011 26.5 24.1173 26.5761C23.8723 26.6776 23.6776 26.8723 23.5761 27.1173C23.5 27.3011 23.5 27.5341 23.5 28Z" stroke="#454545" stroke-width="1.5" stroke-linecap="square" stroke-linejoin="round"/>
<path d="M30.5 24V33C30.5 33.4659 30.5 33.6989 30.5761 33.8827C30.6776 34.1277 30.8723 34.3224 31.1173 34.4239C31.3011 34.5 31.5341 34.5 32 34.5C32.4659 34.5 32.6989 34.5 32.8827 34.4239C33.1277 34.3224 33.3224 34.1277 33.4239 33.8827C33.5 33.6989 33.5 33.4659 33.5 33V24C33.5 23.5341 33.5 23.3011 33.4239 23.1173C33.3224 22.8723 33.1277 22.6776 32.8827 22.5761C32.6989 22.5 32.4659 22.5 32 22.5C31.5341 22.5 31.3011 22.5 31.1173 22.5761C30.8723 22.6776 30.6776 22.8723 30.5761 23.1173C30.5 23.3011 30.5 23.5341 30.5 24Z" stroke="#454545" stroke-width="1.5" stroke-linecap="square" stroke-linejoin="round"/>
<path d="M19.5 20C19.5 20.8284 18.8284 21.5 18 21.5C17.1716 21.5 16.5 20.8284 16.5 20C16.5 19.1716 17.1716 18.5 18 18.5C18.8284 18.5 19.5 19.1716 19.5 20Z" stroke="#454545" stroke-width="1.5"/>
<path d="M33.5 18C33.5 18.8284 32.8284 19.5 32 19.5C31.1716 19.5 30.5 18.8284 30.5 18C30.5 17.1716 31.1716 16.5 32 16.5C32.8284 16.5 33.5 17.1716 33.5 18Z" stroke="#454545" stroke-width="1.5"/>
<path d="M26.5 22C26.5 22.8284 25.8284 23.5 25 23.5C24.1716 23.5 23.5 22.8284 23.5 22C23.5 21.1716 24.1716 20.5 25 20.5C25.8284 20.5 26.5 21.1716 26.5 22Z" stroke="#454545" stroke-width="1.5"/>
<path d="M19.4434 20.412L23.558 21.5876M26.3033 21.2555L30.6981 18.7441" stroke="#454545" stroke-width="1.5"/>
</svg>
