<svg width="50" height="51" viewBox="0 0 50 51" fill="none" xmlns="http://www.w3.org/2000/svg">
<rect y="0.5" width="50" height="50" rx="25" fill="white"/>
<path d="M29.5557 18.1188C28.7488 17.571 27.8724 17.1485 26.9552 16.8602C25.7981 16.4965 25.2195 16.3146 24.6098 16.7715C24 17.2284 24 17.9705 24 19.4547V24.0064C24 25.2697 24 25.9013 24.2341 26.4676C24.4683 27.034 24.9122 27.4761 25.8 28.3604L28.999 31.5466C30.0421 32.5855 30.5637 33.105 31.3116 32.9823C32.0596 32.8597 32.3367 32.3125 32.8911 31.2182C33.3153 30.381 33.6251 29.4835 33.8079 28.5499C34.1937 26.5788 33.9957 24.5358 33.2388 22.679C32.4819 20.8223 31.2002 19.2353 29.5557 18.1188Z" stroke="#454545" stroke-width="1.5" stroke-linecap="round" stroke-linejoin="round"/>
<path d="M27 33.9185C26.0736 34.2935 25.0609 34.5 24 34.5C19.5817 34.5 16 30.9183 16 26.5C16 23.0631 18.1674 20.1323 21.2099 19" stroke="#454545" stroke-width="1.5" stroke-linecap="round" stroke-linejoin="round"/>
</svg>
