<svg width="25" height="24" viewBox="0 0 25 24" fill="none" xmlns="http://www.w3.org/2000/svg">
<path d="M2.6665 6L9.57952 9.91697C12.1281 11.361 13.2049 11.361 15.7535 9.91697L22.6665 6" stroke="#454545" stroke-width="1.5" stroke-linejoin="round"/>
<path d="M2.68227 13.4756C2.74764 16.5412 2.78033 18.0739 3.91146 19.2094C5.04258 20.3448 6.61683 20.3843 9.76533 20.4634C11.7058 20.5122 13.6272 20.5122 15.5677 20.4634C18.7162 20.3843 20.2904 20.3448 21.4216 19.2094C22.5527 18.0739 22.5854 16.5412 22.6507 13.4756C22.6718 12.4899 22.6718 11.5101 22.6507 10.5244C22.5854 7.45886 22.5527 5.92609 21.4216 4.79066C20.2904 3.65523 18.7162 3.61568 15.5677 3.53657C13.6272 3.48781 11.7058 3.48781 9.76532 3.53656C6.61683 3.61566 5.04258 3.65521 3.91145 4.79065C2.78032 5.92608 2.74764 7.45885 2.68226 10.5244C2.66124 11.5101 2.66125 12.4899 2.68227 13.4756Z" stroke="#454545" stroke-width="1.5" stroke-linejoin="round"/>
</svg>
