<svg width="16" height="23" viewBox="0 0 16 23" fill="none" xmlns="http://www.w3.org/2000/svg">
<path fill-rule="evenodd" clip-rule="evenodd" d="M2.18182 9.8333C1.20406 9.8333 1 10.0252 1 10.9444V12.6111C1 13.5304 1.20406 13.7222 2.18182 13.7222H4.54545V20.3889C4.54545 21.3081 4.74951 21.5 5.72727 21.5H8.0909C9.0687 21.5 9.2727 21.3081 9.2727 20.3889V13.7222H11.9267C12.6683 13.7222 12.8594 13.5867 13.0631 12.9164L13.5696 11.2497C13.9185 10.1014 13.7035 9.8333 12.4332 9.8333H9.2727V7.05556C9.2727 6.44191 9.8018 5.94444 10.4545 5.94444H13.8182C14.7959 5.94444 15 5.75259 15 4.83333V2.61111C15 1.69185 14.7959 1.5 13.8182 1.5H10.4545C7.191 1.5 4.54545 3.98731 4.54545 7.05556V9.8333H2.18182Z" stroke="#5C5C5C" stroke-width="1.5" stroke-linejoin="round"/>
</svg>
