<svg width="40" height="40" viewBox="0 0 40 40" fill="none" xmlns="http://www.w3.org/2000/svg">
<path d="M26.5585 18.9571C26.1345 16.9377 23.8784 15.4872 19.3664 12.5866C14.4589 9.43158 12.005 7.85408 10.0175 8.46192C9.34435 8.66775 8.72435 9.02958 8.20386 9.52075C6.66669 10.9704 6.66669 13.9804 6.66669 20.0001C6.66669 26.0198 6.66669 29.0297 8.20386 30.4795C8.72435 30.9705 9.34435 31.3325 10.0175 31.5383C12.005 32.146 14.4589 30.5686 19.3664 27.4137C23.8784 24.5129 26.1345 23.0624 26.5585 21.0431C26.7028 20.3559 26.7028 19.6442 26.5585 18.9571Z" fill="white" stroke="white" stroke-width="1.5" stroke-linejoin="round"/>
<path d="M33.3333 33.3333V6.66659" stroke="white" stroke-width="1.5" stroke-linecap="round"/>
</svg>
