<svg width="24" height="25" viewBox="0 0 24 25" fill="none" xmlns="http://www.w3.org/2000/svg">
<path d="M4.5 10H4C3.05719 10 2.58579 10 2.29289 10.2929C2 10.5858 2 11.0572 2 12V20.5C2 21.4428 2 21.9142 2.29289 22.2071C2.58579 22.5 3.05719 22.5 4 22.5H4.5C5.44281 22.5 5.91421 22.5 6.20711 22.2071C6.5 21.9142 6.5 21.4428 6.5 20.5V12C6.5 11.0572 6.5 10.5858 6.20711 10.2929C5.91421 10 5.44281 10 4.5 10Z" stroke="#5C5C5C" stroke-width="1.5"/>
<path d="M6.5 4.75C6.5 5.99264 5.49264 7 4.25 7C3.00736 7 2 5.99264 2 4.75C2 3.50736 3.00736 2.5 4.25 2.5C5.49264 2.5 6.5 3.50736 6.5 4.75Z" stroke="#5C5C5C" stroke-width="1.5"/>
<path d="M12.326 10H11.5C10.5572 10 10.0858 10 9.79289 10.2929C9.5 10.5858 9.5 11.0572 9.5 12V20.5C9.5 21.4428 9.5 21.9142 9.79289 22.2071C10.0858 22.5 10.5572 22.5 11.5 22.5H12C12.9428 22.5 13.4142 22.5 13.7071 22.2071C14 21.9142 14 21.4428 14 20.5L14.0001 17.0001C14.0001 15.3433 14.5281 14.0001 16.0879 14.0001C16.8677 14.0001 17.5 14.6717 17.5 15.5001V20.0001C17.5 20.9429 17.5 21.4143 17.7929 21.7072C18.0857 22.0001 18.5572 22.0001 19.5 22.0001H19.9987C20.9413 22.0001 21.4126 22.0001 21.7055 21.7073C21.9984 21.4145 21.9985 20.9432 21.9987 20.0006L22.0001 14.5002C22.0001 12.015 19.6364 10.0002 17.2968 10.0002C15.9649 10.0002 14.7767 10.6531 14.0001 11.674C14 11.0439 14 10.7289 13.8632 10.495C13.7765 10.3469 13.6531 10.2235 13.505 10.1369C13.2711 10 12.9561 10 12.326 10Z" stroke="#5C5C5C" stroke-width="1.5" stroke-linejoin="round"/>
</svg>
