<svg width="25" height="24" viewBox="0 0 25 24" fill="none" xmlns="http://www.w3.org/2000/svg">
<path d="M14.2842 21.367C13.8506 21.773 13.2709 22 12.6676 22C12.0643 22 11.4847 21.773 11.051 21.367C7.07952 17.626 1.75726 13.4469 4.35277 7.37966C5.75613 4.09916 9.12484 2 12.6676 2C16.2104 2 19.5791 4.09916 20.9825 7.37966C23.5747 13.4393 18.2655 17.6389 14.2842 21.367Z" stroke="#454545" stroke-width="1.5"/>
<path d="M16.1665 11C16.1665 12.933 14.5995 14.5 12.6665 14.5C10.7335 14.5 9.1665 12.933 9.1665 11C9.1665 9.067 10.7335 7.5 12.6665 7.5C14.5995 7.5 16.1665 9.067 16.1665 11Z" stroke="#454545" stroke-width="1.5"/>
</svg>
