<svg width="25" height="24" viewBox="0 0 25 24" fill="none" xmlns="http://www.w3.org/2000/svg">
<path d="M9.82501 5.71223L9.42235 4.80625C9.15907 4.21388 9.02743 3.91768 8.83056 3.69101C8.58383 3.40694 8.26222 3.19794 7.90243 3.08785C7.61534 3 7.29121 3 6.64296 3C5.69466 3 5.22051 3 4.82248 3.18229C4.35362 3.39702 3.93019 3.86328 3.76148 4.3506C3.61826 4.76429 3.65929 5.18943 3.74133 6.0397C4.61466 15.0902 9.57657 20.0521 18.627 20.9254C19.4773 21.0075 19.9025 21.0485 20.3161 20.9053C20.8035 20.7366 21.2697 20.3131 21.4845 19.8443C21.6667 19.4462 21.6667 18.9721 21.6667 18.0238C21.6667 17.3755 21.6667 17.0514 21.5789 16.7643C21.4688 16.4045 21.2598 16.0829 20.9757 15.8362C20.7491 15.6393 20.4529 15.5077 19.8605 15.2444L18.9545 14.8417C18.313 14.5566 17.9922 14.4141 17.6663 14.3831C17.3543 14.3534 17.0398 14.3972 16.7478 14.5109C16.4427 14.6297 16.1731 14.8544 15.6337 15.3038C15.0969 15.7512 14.8285 15.9749 14.5005 16.0947C14.2097 16.2009 13.8253 16.2403 13.5191 16.1951C13.1736 16.1442 12.9091 16.0029 12.38 15.7201C10.734 14.8405 9.82628 13.9328 8.94662 12.2867C8.66389 11.7577 8.52253 11.4931 8.47162 11.1477C8.42649 10.8414 8.46583 10.457 8.57205 10.1663C8.69187 9.83828 8.91556 9.56986 9.36294 9.033C9.81237 8.49368 10.0371 8.22402 10.1559 7.91891C10.2696 7.62694 10.3134 7.3124 10.2837 7.00048C10.2527 6.67452 10.1101 6.35376 9.82501 5.71223Z" stroke="#454545" stroke-width="1.5" stroke-linecap="round"/>
</svg>
