<svg width="40" height="40" viewBox="0 0 40 40" fill="none" xmlns="http://www.w3.org/2000/svg">
<path d="M13.4415 21.0429C13.8655 23.0623 16.1216 24.5128 20.6337 27.4134C25.5412 30.5684 27.995 32.1459 29.9825 31.5381C30.6557 31.3323 31.2757 30.9704 31.7962 30.4792C33.3333 29.0296 33.3333 26.0196 33.3333 19.9999C33.3333 13.9802 33.3333 10.9703 31.7962 9.5205C31.2757 9.02947 30.6557 8.66753 29.9825 8.4617C27.995 7.85397 25.5412 9.43142 20.6337 12.5863C16.1216 15.4871 13.8655 16.9376 13.4415 18.9569C13.2973 19.6441 13.2973 20.3558 13.4415 21.0429Z" fill="white" stroke="white" stroke-width="1.5" stroke-linejoin="round"/>
<path d="M6.66667 6.66675V33.3334" stroke="white" stroke-width="1.5" stroke-linecap="round"/>
</svg>
