<svg width="34" height="32" viewBox="0 0 34 32" fill="none" xmlns="http://www.w3.org/2000/svg">
<g opacity="0.2">
<path d="M10.7954 12.9923L5.60402 9.97412L0.405762 12.9923V19.0148L5.60402 22.0261L10.7954 19.0148V12.9923ZM9.67754 18.3671L5.60402 20.7237L1.53046 18.3671V13.64L5.60402 11.2765L9.67754 13.64V18.3671Z" fill="#64748B"/>
<path d="M22.0158 12.9854L17.0255 9.97412L12.0417 12.9854V19.0079L17.0255 22.0261L22.0158 19.0079V12.9854Z" fill="#64748B"/>
<path d="M28.4551 9.97412L23.2637 12.9923V19.0148L28.4551 22.0261L33.6533 19.0148V12.9923L28.4551 9.97412ZM32.5287 18.3671L28.4551 20.7237L24.3815 18.3671V13.64L28.4551 11.2765L32.5287 13.64V18.3671Z" fill="#64748B"/>
<path d="M6.22485 22.9661V28.9887L11.4299 32L16.6145 28.9887V22.9661L11.4299 19.948L6.22485 22.9661ZM15.4776 28.3616L11.4299 30.6976L7.32067 28.3616V23.6139L11.4299 21.2504L15.4913 23.6139L15.4776 28.3616Z" fill="#64748B"/>
<path d="M17.4446 22.9661V28.9887L22.6359 32L27.8342 28.9887V22.9661L22.6359 19.948L17.4446 22.9661ZM26.7095 28.3616L22.6359 30.7183L18.5693 28.3616V23.6139L22.6359 21.2504L26.7095 23.6139V28.3616Z" fill="#64748B"/>
<path d="M16.6145 9.04067V2.99749L11.4368 0L6.22485 2.99749V9.02002L11.4368 12.052L16.6145 9.04067ZM7.32212 3.68657L11.4368 1.30236L15.4898 3.68657V8.41364L11.4368 10.7496L7.32212 8.39294V3.68657Z" fill="#64748B"/>
<path d="M27.8342 9.06137V3.01814L22.6359 0L17.4446 3.01814V9.04067L22.6359 12.052L27.8342 9.06137ZM18.5693 3.70722L22.6359 1.34371L26.7095 3.70722V8.43429L22.6359 10.7909L18.5693 8.43429V3.70722Z" fill="#64748B"/>
</g>
</svg>
