<svg width="34" height="32" viewBox="0 0 34 32" fill="none" xmlns="http://www.w3.org/2000/svg">
<g opacity="0.5">
<path d="M10.5478 12.9923L5.35646 9.97412L0.158203 12.9923V19.0148L5.35646 22.0261L10.5478 19.0148V12.9923ZM9.42998 18.3671L5.35646 20.7237L1.2829 18.3671V13.64L5.35646 11.2765L9.42998 13.64V18.3671Z" fill="#64748B"/>
<path d="M21.7682 12.9854L16.7779 9.97412L11.7942 12.9854V19.0079L16.7779 22.0261L21.7682 19.0079V12.9854Z" fill="#64748B"/>
<path d="M28.2075 9.97412L23.0161 12.9923V19.0148L28.2075 22.0261L33.4057 19.0148V12.9923L28.2075 9.97412ZM32.2812 18.3671L28.2075 20.7237L24.134 18.3671V13.64L28.2075 11.2765L32.2812 13.64V18.3671Z" fill="#64748B"/>
<path d="M5.97729 22.9661V28.9887L11.1824 32L16.3669 28.9887V22.9661L11.1824 19.948L5.97729 22.9661ZM15.23 28.3616L11.1824 30.6976L7.07311 28.3616V23.6139L11.1824 21.2504L15.2437 23.6139L15.23 28.3616Z" fill="#64748B"/>
<path d="M17.197 22.9661V28.9887L22.3884 32L27.5866 28.9887V22.9661L22.3884 19.948L17.197 22.9661ZM26.4619 28.3616L22.3884 30.7183L18.3217 28.3616V23.6139L22.3884 21.2504L26.4619 23.6139V28.3616Z" fill="#64748B"/>
<path d="M16.3669 9.04067V2.99749L11.1893 0L5.97729 2.99749V9.02002L11.1893 12.052L16.3669 9.04067ZM7.07456 3.68657L11.1893 1.30236L15.2423 3.68657V8.41364L11.1893 10.7496L7.07456 8.39294V3.68657Z" fill="#64748B"/>
<path d="M27.5866 9.06137V3.01814L22.3884 0L17.197 3.01814V9.04067L22.3884 12.052L27.5866 9.06137ZM18.3217 3.70722L22.3884 1.34371L26.4619 3.70722V8.43429L22.3884 10.7909L18.3217 8.43429V3.70722Z" fill="#64748B"/>
</g>
</svg>
