<svg width="35" height="32" viewBox="0 0 35 32" fill="none" xmlns="http://www.w3.org/2000/svg">
<path d="M11.3003 12.9923L6.1089 9.97412L0.910645 12.9923V19.0148L6.1089 22.0261L11.3003 19.0148V12.9923ZM10.1824 18.3671L6.1089 20.7237L2.03534 18.3671V13.64L6.1089 11.2765L10.1824 13.64V18.3671Z" fill="#64748B"/>
<path d="M22.5207 12.9854L17.5304 9.97412L12.5466 12.9854V19.0079L17.5304 22.0261L22.5207 19.0079V12.9854Z" fill="#64748B"/>
<path d="M28.96 9.97412L23.7686 12.9923V19.0148L28.96 22.0261L34.1582 19.0148V12.9923L28.96 9.97412ZM33.0336 18.3671L28.96 20.7237L24.8864 18.3671V13.64L28.96 11.2765L33.0336 13.64V18.3671Z" fill="#64748B"/>
<path d="M6.72974 22.9661V28.9887L11.9348 32L17.1194 28.9887V22.9661L11.9348 19.948L6.72974 22.9661ZM15.9824 28.3616L11.9348 30.6976L7.82555 28.3616V23.6139L11.9348 21.2504L15.9962 23.6139L15.9824 28.3616Z" fill="#64748B"/>
<path d="M17.9495 22.9661V28.9887L23.1408 32L28.3391 28.9887V22.9661L23.1408 19.948L17.9495 22.9661ZM27.2144 28.3616L23.1408 30.7183L19.0742 28.3616V23.6139L23.1408 21.2504L27.2144 23.6139V28.3616Z" fill="#64748B"/>
<path d="M17.1194 9.04067V2.99749L11.9417 0L6.72974 2.99749V9.02002L11.9417 12.052L17.1194 9.04067ZM7.827 3.68657L11.9417 1.30236L15.9947 3.68657V8.41364L11.9417 10.7496L7.827 8.39294V3.68657Z" fill="#64748B"/>
<path d="M28.3391 9.06137V3.01814L23.1408 0L17.9495 3.01814V9.04067L23.1408 12.052L28.3391 9.06137ZM19.0742 3.70722L23.1408 1.34371L27.2144 3.70722V8.43429L23.1408 10.7909L19.0742 8.43429V3.70722Z" fill="#64748B"/>
</svg>
