<svg width="33" height="32" viewBox="0 0 33 32" fill="none" xmlns="http://www.w3.org/2000/svg">
<path d="M5.02512 6.06714L0.0576172 11.0346L5.02512 16.0021L9.99262 11.0346L5.02512 6.06714Z" fill="#64748B"/>
<path d="M10.001 11.0326L5.03167 6.06323C6.34857 7.38061 7.08838 9.1671 7.08838 11.0298C7.08838 12.8926 6.34857 14.6791 5.03167 15.9964L0.0622559 20.9603L5.03167 25.9296L10.001 20.9603L14.9704 15.9964L10.001 11.0326Z" fill="#CBD5E1"/>
<path d="M27.0849 25.9404L32.0523 20.9729L27.0849 16.0054L22.1174 20.9729L27.0849 25.9404Z" fill="#64748B"/>
<path d="M22.1181 20.9714L27.0875 25.9352C25.7706 24.6178 25.0308 22.8314 25.0308 20.9686C25.0308 19.1059 25.7706 17.3194 27.0875 16.002L32.057 11.0326L27.0875 6.06323L22.1181 11.0326L17.1543 16.002L22.1181 20.9714Z" fill="#CBD5E1"/>
<path d="M6.12427 27.0325L11.0918 32L16.0593 27.0325L11.0918 22.0649L6.12427 27.0325Z" fill="#64748B"/>
<path d="M11.0922 22.0576L6.1228 27.027C7.44018 25.7101 9.22663 24.9703 11.0894 24.9703C12.9521 24.9703 14.7386 25.7101 16.056 27.027L21.0198 31.9964L25.9892 27.027L21.0198 22.0576L16.056 17.0938L11.0922 22.0576Z" fill="#CBD5E1"/>
<path d="M25.9983 4.96754L21.0307 0L16.0632 4.9675L21.0307 9.93504L25.9983 4.96754Z" fill="#64748B"/>
<path d="M21.0309 9.9405L25.9948 4.97112C24.6774 6.28802 22.8909 7.02783 21.0282 7.02783C19.1654 7.02783 17.379 6.28802 16.0616 4.97112L11.0922 0.00170898L6.1228 4.97112L11.0922 9.9405L16.0616 14.9099L21.0309 9.9405Z" fill="#CBD5E1"/>
</svg>
