<svg width="28" height="32" viewBox="0 0 28 32" fill="none" xmlns="http://www.w3.org/2000/svg">
<path d="M13.9785 3.11148L19.296 6.18212L21.9921 4.62978L13.9785 0L0.593018 7.73445L3.27556 9.28679L13.9785 3.11148Z" fill="#64748B"/>
<path d="M24.6768 6.18213L13.9807 12.3574L8.66323 9.2868L5.97388 10.8391L13.9807 15.4621L27.373 7.73447L24.6768 6.18213Z" fill="#64748B"/>
<path d="M2.74624 16.5719L0.0568848 15.0195V24.2655L13.4424 31.9999V28.8952L2.74624 22.7131V16.5719Z" fill="#64748B"/>
<path d="M0.0568848 11.9147L10.753 18.09V24.2313L13.4424 25.7904V16.5377L0.0568848 8.81006V11.9147Z" fill="#64748B"/>
<path d="M22.5326 15.0195V11.9148L14.519 16.5378V31.9999L17.2084 30.4475V18.0901L22.5326 15.0195Z" fill="#64748B"/>
<path d="M25.2147 10.3624V22.713L19.8972 25.7904V28.8951L27.9108 24.2653V8.81006L25.2147 10.3624Z" fill="#64748B"/>
</svg>
